<svg xmlns="http://www.w3.org/2000/svg" xmlns:xlink="http://www.w3.org/1999/xlink"> 

<symbol width="16" height="16" viewBox="0 0 16 16" id="location" fill="none"> 
<path d="M14 6.66675C14 11.3334 8 15.3334 8 15.3334C8 15.3334 2 11.3334 2 6.66675C2 5.07545 2.63214 3.54933 3.75736 2.42411C4.88258 1.29889 6.4087 0.666748 8 0.666748C9.5913 0.666748 11.1174 1.29889 12.2426 2.42411C13.3679 3.54933 14 5.07545 14 6.66675Z" stroke="#E93C3C" stroke-linecap="round" stroke-linejoin="round"/>
<path d="M8 8.66675C9.10457 8.66675 10 7.77132 10 6.66675C10 5.56218 9.10457 4.66675 8 4.66675C6.89543 4.66675 6 5.56218 6 6.66675C6 7.77132 6.89543 8.66675 8 8.66675Z" stroke="#E93C3C" stroke-linecap="round" stroke-linejoin="round"/>
</symbol>

<symbol viewBox="0 0 20 20" id="search">
<path d="M9.16667 15.8333C12.8486 15.8333 15.8333 12.8486 15.8333 9.16667C15.8333 5.48477 12.8486 2.5 9.16667 2.5C5.48477 2.5 2.5 5.48477 2.5 9.16667C2.5 12.8486 5.48477 15.8333 9.16667 15.8333Z" stroke="#EB4747" stroke-width="2" stroke-linecap="round" stroke-linejoin="round"/>
<path d="M17.5 17.5L13.875 13.875" stroke-width="2" stroke-linecap="square" stroke-linejoin="round"/>
</symbol>

<symbol width="20" height="20" viewBox="0 0 20 20" fill="none" id="user">
<path d="M16.6667 17.5V15.8333C16.6667 14.9493 16.3155 14.1014 15.6903 13.4763C15.0652 12.8512 14.2174 12.5 13.3333 12.5H6.66666C5.78261 12.5 4.93476 12.8512 4.30964 13.4763C3.68452 14.1014 3.33333 14.9493 3.33333 15.8333V17.5" stroke="#A0A4A8" stroke-width="2" stroke-linecap="round" stroke-linejoin="round"/>
<path d="M10 9.16667C11.841 9.16667 13.3333 7.67428 13.3333 5.83333C13.3333 3.99238 11.841 2.5 10 2.5C8.15906 2.5 6.66667 3.99238 6.66667 5.83333C6.66667 7.67428 8.15906 9.16667 10 9.16667Z" stroke="#A0A4A8" stroke-width="2" stroke-linecap="round" stroke-linejoin="round"/>
</symbol>

<symbol viewBox="0 0 20 18" id="heart">
<path d="M17.3666 2.84172C16.941 2.41589 16.4356 2.0781 15.8794 1.84763C15.3232 1.61716 14.727 1.49854 14.125 1.49854C13.5229 1.49854 12.9267 1.61716 12.3705 1.84763C11.8143 2.0781 11.3089 2.41589 10.8833 2.84172L9.99997 3.72506L9.11663 2.84172C8.25689 1.98198 7.09083 1.49898 5.87497 1.49898C4.65911 1.49898 3.49304 1.98198 2.6333 2.84172C1.77356 3.70147 1.29056 4.86753 1.29056 6.08339C1.29056 7.29925 1.77356 8.46531 2.6333 9.32506L3.51663 10.2084L9.99997 16.6917L16.4833 10.2084L17.3666 9.32506C17.7925 8.89943 18.1303 8.39407 18.3607 7.83785C18.5912 7.28164 18.7098 6.68546 18.7098 6.08339C18.7098 5.48132 18.5912 4.88514 18.3607 4.32893C18.1303 3.77271 17.7925 3.26735 17.3666 2.84172V2.84172Z" stroke-width="2" stroke-linecap="round" stroke-linejoin="round"/>
</symbol>

<symbol fill="none" id="like">
<path d="M17.3666 6.84172C16.941 6.41589 16.4356 6.0781 15.8794 5.84763C15.3232 5.61716 14.727 5.49854 14.125 5.49854C13.5229 5.49854 12.9267 5.61716 12.3705 5.84763C11.8143 6.0781 11.3089 6.41589 10.8833 6.84172L9.99997 7.72506L9.11663 6.84172C8.25689 5.98198 7.09083 5.49898 5.87497 5.49898C4.65911 5.49898 3.49304 5.98198 2.6333 6.84172C1.77356 7.70147 1.29056 8.86753 1.29056 10.0834C1.29056 11.2993 1.77356 12.4653 2.6333 13.3251L3.51663 14.2084L9.99997 20.6917L16.4833 14.2084L17.3666 13.3251C17.7925 12.8994 18.1303 12.3941 18.3607 11.8379C18.5912 11.2816 18.7098 10.6855 18.7098 10.0834C18.7098 9.48132 18.5912 8.88514 18.3607 8.32893C18.1303 7.77271 17.7925 7.26735 17.3666 6.84172V6.84172Z" stroke="#A0A4A8" stroke-width="2" stroke-linecap="round" stroke-linejoin="round"/>
<circle cx="19" cy="8" r="7.5" fill="#E93C3C" stroke="#F2F2F2"/>
<path d="M21.5797 8.136C21.5797 8.63733 21.525 9.072 21.4157 9.44C21.309 9.80533 21.1624 10.108 20.9757 10.348C20.789 10.588 20.5677 10.7667 20.3117 10.884C20.0584 11.0013 19.7864 11.06 19.4957 11.06C19.2024 11.06 18.929 11.0013 18.6757 10.884C18.425 10.7667 18.2064 10.588 18.0197 10.348C17.833 10.108 17.6864 9.80533 17.5797 9.44C17.473 9.072 17.4197 8.63733 17.4197 8.136C17.4197 7.63467 17.473 7.2 17.5797 6.832C17.6864 6.464 17.833 6.16 18.0197 5.92C18.2064 5.67733 18.425 5.49733 18.6757 5.38C18.929 5.26267 19.2024 5.204 19.4957 5.204C19.7864 5.204 20.0584 5.26267 20.3117 5.38C20.5677 5.49733 20.789 5.67733 20.9757 5.92C21.1624 6.16 21.309 6.464 21.4157 6.832C21.525 7.2 21.5797 7.63467 21.5797 8.136ZM20.8397 8.136C20.8397 7.69867 20.8024 7.332 20.7277 7.036C20.6557 6.73733 20.557 6.49733 20.4317 6.316C20.309 6.13467 20.1664 6.00533 20.0037 5.928C19.841 5.848 19.6717 5.808 19.4957 5.808C19.3197 5.808 19.1504 5.848 18.9877 5.928C18.825 6.00533 18.6824 6.13467 18.5597 6.316C18.437 6.49733 18.3384 6.73733 18.2637 7.036C18.1917 7.332 18.1557 7.69867 18.1557 8.136C18.1557 8.57333 18.1917 8.94 18.2637 9.236C18.3384 9.532 18.437 9.77067 18.5597 9.952C18.6824 10.1333 18.825 10.264 18.9877 10.344C19.1504 10.4213 19.3197 10.46 19.4957 10.46C19.6717 10.46 19.841 10.4213 20.0037 10.344C20.1664 10.264 20.309 10.1333 20.4317 9.952C20.557 9.77067 20.6557 9.532 20.7277 9.236C20.8024 8.94 20.8397 8.57333 20.8397 8.136Z" fill="white"/>
</symbol>

<symbol viewBox="0 0 27 23" id="basket">
<g clip-path="url(#clip0_841_528)">
<path d="M7.50002 21.3332C7.96026 21.3332 8.33335 20.9601 8.33335 20.4998C8.33335 20.0396 7.96026 19.6665 7.50002 19.6665C7.03978 19.6665 6.66669 20.0396 6.66669 20.4998C6.66669 20.9601 7.03978 21.3332 7.50002 21.3332Z" stroke="#A0A4A8" stroke-width="2" stroke-linecap="round" stroke-linejoin="round"/>
<path d="M16.6666 21.3332C17.1269 21.3332 17.5 20.9601 17.5 20.4998C17.5 20.0396 17.1269 19.6665 16.6666 19.6665C16.2064 19.6665 15.8333 20.0396 15.8333 20.4998C15.8333 20.9601 16.2064 21.3332 16.6666 21.3332Z" stroke="#A0A4A8" stroke-width="2" stroke-linecap="round" stroke-linejoin="round"/>
<path d="M0.833313 3.8335H4.16665L6.39998 14.9918C6.47618 15.3755 6.6849 15.7201 6.9896 15.9654C7.2943 16.2107 7.67556 16.341 8.06665 16.3335H16.1666C16.5577 16.341 16.939 16.2107 17.2437 15.9654C17.5484 15.7201 17.7571 15.3755 17.8333 14.9918L19.1666 8.00016H4.99998" stroke="#A0A4A8" stroke-width="2" stroke-linecap="round" stroke-linejoin="round"/>
<circle cx="19" cy="8" r="7.5" fill="#E93C3C" stroke="#F2F2F2"/>
<path d="M21.5797 8.136C21.5797 8.63733 21.525 9.072 21.4157 9.44C21.309 9.80533 21.1624 10.108 20.9757 10.348C20.789 10.588 20.5677 10.7667 20.3117 10.884C20.0584 11.0013 19.7864 11.06 19.4957 11.06C19.2024 11.06 18.929 11.0013 18.6757 10.884C18.425 10.7667 18.2064 10.588 18.0197 10.348C17.833 10.108 17.6864 9.80533 17.5797 9.44C17.473 9.072 17.4197 8.63733 17.4197 8.136C17.4197 7.63467 17.473 7.2 17.5797 6.832C17.6864 6.464 17.833 6.16 18.0197 5.92C18.2064 5.67733 18.425 5.49733 18.6757 5.38C18.929 5.26267 19.2024 5.204 19.4957 5.204C19.7864 5.204 20.0584 5.26267 20.3117 5.38C20.5677 5.49733 20.789 5.67733 20.9757 5.92C21.1624 6.16 21.309 6.464 21.4157 6.832C21.525 7.2 21.5797 7.63467 21.5797 8.136ZM20.8397 8.136C20.8397 7.69867 20.8024 7.332 20.7277 7.036C20.6557 6.73733 20.557 6.49733 20.4317 6.316C20.309 6.13467 20.1664 6.00533 20.0037 5.928C19.841 5.848 19.6717 5.808 19.4957 5.808C19.3197 5.808 19.1504 5.848 18.9877 5.928C18.825 6.00533 18.6824 6.13467 18.5597 6.316C18.437 6.49733 18.3384 6.73733 18.2637 7.036C18.1917 7.332 18.1557 7.69867 18.1557 8.136C18.1557 8.57333 18.1917 8.94 18.2637 9.236C18.3384 9.532 18.437 9.77067 18.5597 9.952C18.6824 10.1333 18.825 10.264 18.9877 10.344C19.1504 10.4213 19.3197 10.46 19.4957 10.46C19.6717 10.46 19.841 10.4213 20.0037 10.344C20.1664 10.264 20.309 10.1333 20.4317 9.952C20.557 9.77067 20.6557 9.532 20.7277 9.236C20.8024 8.94 20.8397 8.57333 20.8397 8.136Z" fill="white"/>
</g>
<defs>
<clipPath id="clip0_841_528">
<rect width="27" height="23" fill="white"/>
</clipPath>
</defs>
</sybmol>

<symbol viewBox="0 0 8 14" id="prev">
<path d="M7 1L1 7L7 13" stroke="#A0A4A8" stroke-width="2" stroke-linecap="round" stroke-linejoin="round"/>
</symbol>

<symbol viewBox="0 0 8 14" id="next">
<path d="M1 13L7 7L1 1" stroke="#A0A4A8" stroke-width="2" stroke-linecap="round" stroke-linejoin="round"/>
</symbol>

<symbol viewBox="0 0 24 24" id="send">
<path d="M22 2L11 13" stroke="#A0A4A8" stroke-width="2" stroke-linecap="round" stroke-linejoin="round"/>
<path d="M22 2L15 22L11 13L2 9L22 2Z" stroke="#A0A4A8" stroke-width="2" stroke-linecap="round" stroke-linejoin="round"/>
</symbol>



</svg>

